<?xml version="1.0" encoding="utf-8"?>
<!-- Generator: Adobe Illustrator 27.1.1, SVG Export Plug-In . SVG Version: 6.00 Build 0)  -->
<svg version="1.1" id="Outline_00000068660976892517701140000011396894017443136155_"
	 xmlns="http://www.w3.org/2000/svg" xmlns:xlink="http://www.w3.org/1999/xlink" x="0px" y="0px" viewBox="0 0 48 48"
	 enable-background="new 0 0 48 48" xml:space="preserve">
<path d="M31.74902,21.16016c0-4.27295-3.47656-7.74951-7.74902-7.74951c-4.27295,0-7.74951,3.47656-7.74951,7.74951
	S19.72705,28.90967,24,28.90967C28.27246,28.90967,31.74902,25.43311,31.74902,21.16016z M24,27.40967
	c-3.4458,0-6.24951-2.80371-6.24951-6.24951S20.5542,14.91064,24,14.91064c3.44531,0,6.24902,2.80371,6.24902,6.24951
	S27.44531,27.40967,24,27.40967z"/>
<path d="M26.46973,18.62988L23,22.09961l-1.46973-1.46973c-0.29297-0.29297-0.76758-0.29297-1.06055,0s-0.29297,0.76758,0,1.06055
	c0,0,1.98893,1.98893,1.99995,1.99995c0.27399,0.27399,0.77135,0.28928,1.06059,0.00005l4-4
	c0.29297-0.29297,0.29297-0.76758,0-1.06055S26.7627,18.33691,26.46973,18.62988z"/>
<path d="M38.53027,31.80957l-4.14325-4.14325c0.14447-0.56104,0.12891-1.16254,0.10075-1.71838
	c-0.05114-1.02186,0.14402-1.65283,0.78273-2.43818c0.53418-0.65576,1.13965-1.39941,1.13965-2.34961
	c0-0.94971-0.60498-1.69336-1.13921-2.34967c-0.63252-0.77676-0.83215-1.44935-0.78267-2.43793
	c0.04199-0.8291,0.08936-1.76904-0.44824-2.5083c-0.54248-0.74561-1.45605-0.99072-2.26237-1.20659
	c-1.00295-0.26896-1.52038-0.64306-2.07943-1.50875c-0.45654-0.70605-0.97363-1.50586-1.86279-1.79443
	c-0.85449-0.27783-1.72656,0.05566-2.49493,0.34875c-1.01476,0.38787-1.67683,0.38384-2.68134-0.00011
	c-0.76855-0.29297-1.63916-0.62646-2.49463-0.34863c-0.88916,0.28857-1.40625,1.08838-1.86248,1.79422
	c-0.56685,0.87623-1.08078,1.24093-2.07941,1.509c-0.80615,0.21582-1.71973,0.46045-2.2627,1.20703
	c-0.5376,0.73877-0.48975,1.67822-0.44774,2.50761c0.05285,1.05591-0.11746,1.62023-0.78273,2.43722
	c-0.53418,0.65625-1.13965,1.40039-1.13965,2.35059c0,0.94971,0.60498,1.69336,1.13926,2.34973
	c0.65525,0.80468,0.83388,1.4136,0.78262,2.43787c-0.02814,0.5556-0.04352,1.15735,0.1012,1.71863
	c0,0-4.12661,4.12661-4.14314,4.14314c-0.42093,0.42093-0.16361,1.18889,0.42378,1.27251l4.39404,0.63037
	c0,0,0.62692,4.37,0.63036,4.39394c0.08495,0.59216,0.84886,0.84754,1.27199,0.42442c0,0,5.62909-5.61957,5.6291-5.61957
	c0.70124-0.20493,1.43626-0.66119,2.18106-0.66119c0.50798,0.00003,1.8125,0.28331,2.19435,0.66516
	c0.00007,0.00007,5.57806,5.57806,5.61493,5.61493c0.40876,0.40876,1.18514,0.19097,1.27264-0.42365l0.63037-4.39404
	c0,0,4.3679-0.62662,4.39392-0.63036C38.69846,32.9971,38.95351,32.23281,38.53027,31.80957z M15.69238,32.94336
	c-0.04688-0.32959-0.30615-0.58887-0.63574-0.63574l-3.46631-0.49756l2.86584-2.86584
	c0.51959,0.38055,1.17114,0.55865,1.76599,0.7179c0.47656,0.12793,0.96973,0.26025,1.25879,0.4707
	c0.28174,0.20508,0.54395,0.60986,0.8208,1.03857c0.39069,0.60376,0.84082,1.25684,1.51514,1.6192l-3.62695,3.62054
	L15.69238,32.94336z M23.99986,30.8359c-0.60354,0.00015-1.20997,0.12579-1.87535,0.37992
	c-0.56299,0.21533-1.14502,0.43604-1.49707,0.32275c-0.38183-0.12402-0.72948-0.6616-1.0659-1.18209
	c-0.76736-1.18724-1.56758-1.7717-2.95119-2.1431c-0.59326-0.15918-1.20703-0.32324-1.4375-0.64062
	c-0.22558-0.31005-0.19385-0.93992-0.16309-1.54929c0.07113-1.40899-0.21582-2.35255-1.11767-3.46096
	c-0.39453-0.48438-0.80225-0.98584-0.80225-1.40234c0-0.41699,0.40819-0.91845,0.80272-1.40331
	c0.89168-1.09584,1.1895-2.02867,1.11769-3.46046c-0.03076-0.60938-0.06299-1.23926,0.1626-1.54932
	c0.23095-0.31689,0.8447-0.48144,1.43795-0.64061c1.35513-0.3636,2.18158-0.95312,2.95121-2.14357
	c0.33594-0.52002,0.68359-1.05762,1.06543-1.18164c0.35449-0.11474,0.93407,0.10839,1.49656,0.32323
	c1.3508,0.51593,2.3832,0.52277,3.75198,0.00001c0.5625-0.21484,1.14209-0.43799,1.49658-0.32324
	c0.38183,0.12402,0.72948,0.66208,1.0659,1.18209c0.76171,1.1774,1.58073,1.77616,2.95071,2.1431
	c0.59375,0.15918,1.20752,0.32373,1.43799,0.64062c0.22559,0.31006,0.19385,0.94042,0.16309,1.54979
	c-0.07041,1.39484,0.22728,2.36663,1.11768,3.46095c0.39453,0.48438,0.80225,0.98584,0.80225,1.40234
	c0,0.4165-0.40819,0.91796-0.80272,1.40281c-0.89205,1.09629-1.18947,2.02876-1.11769,3.46096
	c0.03076,0.60938,0.06299,1.23926-0.1626,1.54932c-0.23046,0.31688-0.84418,0.48143-1.4379,0.6406
	c-1.34483,0.36054-2.18306,0.95536-2.95126,2.14358c-0.33594,0.52002-0.68359,1.05762-1.06543,1.18164
	c-0.35448,0.11474-0.93405-0.10839-1.49653-0.32322C25.21515,30.96342,24.60897,30.83575,23.99986,30.8359z M32.94336,32.30762
	c-0.32959,0.04688-0.58887,0.30615-0.63574,0.63574l-0.49756,3.46631l-3.62152-3.62152
	c0.67139-0.3631,1.12006-1.01416,1.50922-1.61627c0.27734-0.42871,0.53906-0.8335,0.82129-1.03906
	c0.28857-0.21045,0.78174-0.34229,1.25879-0.47021c0.5946-0.15967,1.24622-0.33759,1.76605-0.71832l2.86578,2.86578
	L32.94336,32.30762z"/>
</svg>
